# xmcd CD database file
#
# Track frame offsets:
#	150
#	7421
#	22295
#	39215
#	55950
#	70710
#	88468
#	107996
#	122194
#	133491
#	145612
#	167633
#	200702
#
# Disc length: 2942 seconds
#
# Revision: 0
# Processed by: cddbd v1.5.2PL0 Copyright (c) Steve Scherf et al.
# Submitted via: CDex 1.70beta2
#
DISCID=cb0b7c0d
DTITLE=Calaveras - Calaveras
DYEAR=2006
DGENRE=Jazz
TTITLE0=Intro
TTITLE1=Calaveras
TTITLE2=Dead Man
TTITLE3=Morning Light
TTITLE4=Glowing Sun
TTITLE5=Under the Sea
TTITLE6=Come Down
TTITLE7=South of Vera Cruz
TTITLE8=Behind the Border
TTITLE9=Dawn of the Dead
TTITLE10=Beyond the Pale
TTITLE11=Last Ride
TTITLE12=Hidden Track
EXTD=YEAR: 2006
EXTT0=
EXTT1=
EXTT2=
EXTT3=
EXTT4=
EXTT5=
EXTT6=
EXTT7=
EXTT8=
EXTT9=
EXTT10=
EXTT11=
EXTT12=
PLAYORDER=
